<svg width="53" height="54" viewBox="0 0 53 54" fill="none" xmlns="http://www.w3.org/2000/svg">
<path d="M22.9433 5.38856L4.36916 24.7894C3.49083 25.6935 3 26.9335 3 28.2252V45.6369C3 48.3236 5.09255 50.4935 7.65005 50.4935H44.85C47.4075 50.4935 49.5 48.3236 49.5 45.6369V28.2252C49.5 26.9335 49.0092 25.6935 48.1308 24.7894L29.5309 5.41437C27.7225 3.52854 24.7775 3.52854 22.9433 5.41437V5.38856Z" stroke="white" stroke-width="5" stroke-linecap="round" stroke-linejoin="round"/>
<path d="M26 31.4C28.0379 31.4 29.69 29.6942 29.69 27.59C29.69 25.4858 28.0379 23.78 26 23.78C23.9621 23.78 22.31 25.4858 22.31 27.59C22.31 29.6942 23.9621 31.4 26 31.4Z" stroke="#246BFD" stroke-width="2.5" stroke-miterlimit="10" stroke-linecap="round"/>
<path d="M26 37.76V31.4" stroke="#246BFD" stroke-width="2.5" stroke-miterlimit="10" stroke-linecap="round"/>
<path d="M31 34.2101C33.41 34.9501 35 36.2101 35 37.6401C35 39.9201 30.97 41.7701 26 41.7701C21.03 41.7701 17 39.9201 17 37.6401C17 36.2101 18.59 34.9401 21 34.2101" stroke="#246BFD" stroke-width="2.5" stroke-miterlimit="10" stroke-linecap="round"/>
</svg>
