<svg width="56" height="62" viewBox="0 0 56 62" fill="none" xmlns="http://www.w3.org/2000/svg">
<g clip-path="url(#clip0_314_489)">
<path d="M45.0751 21.2353C45.0751 33.295 32.5922 46.3522 27.9073 46.3522C23.2224 46.3522 10.7395 33.295 10.7395 21.2353C10.7395 16.6713 12.553 12.3189 15.7871 9.08485C19.0211 5.85077 23.3736 4.03723 27.9376 4.03723C32.5015 4.03723 36.8539 5.85077 40.088 9.08485C43.3221 12.3189 45.1053 16.6713 45.1053 21.2353H45.0751Z" stroke="white" stroke-width="6" stroke-miterlimit="10" stroke-linecap="round"/>
<path d="M27.9073 27.7639C31.5041 27.7639 34.4359 24.8321 34.4359 21.2353C34.4359 17.6385 31.5041 14.7067 27.9073 14.7067C24.3105 14.7067 21.3787 17.6385 21.3787 21.2353C21.3787 24.8321 24.3105 27.7639 27.9073 27.7639Z" stroke="#246BFD" stroke-width="6" stroke-miterlimit="10" stroke-linecap="round"/>
<path d="M39.9973 35.8944C47.2211 37.9799 52.0873 41.9092 52.0873 46.3825C52.0873 53.0622 41.2668 58.4725 27.9073 58.4725C14.5479 58.4725 3.72733 53.0622 3.72733 46.3825C3.72733 41.9092 8.59355 38.0102 15.8173 35.8944" stroke="white" stroke-width="6" stroke-miterlimit="10" stroke-linecap="round"/>
</g>
<defs>
<clipPath id="clip0_314_489">
<rect width="56" height="62" fill="white"/>
</clipPath>
</defs>
</svg>
