<svg width="146" height="110" viewBox="0 0 146 110" fill="none" xmlns="http://www.w3.org/2000/svg">
<path d="M54.6424 4.51421C32.3658 -6.8214 0 3.07743 0 35.5027C0 72.4179 52.4525 100.166 67.8183 107.502C70.4941 108.78 73.5076 108.792 76.1941 107.537C91.7839 100.254 145.5 72.4767 145.5 35.5027C145.5 3.00204 112.136 -6.86731 89.4343 4.59362C80.7808 8.96225 63.2819 8.91049 54.6424 4.51421Z" fill="#1C45CD"/>
<path d="M67.4281 82.1896C60.5643 75.5206 60.4063 64.55 67.0753 57.6862L84.2832 39.9755L109.139 64.1262L91.9315 81.8368C85.2625 88.7006 74.292 88.8586 67.4281 82.1896V82.1896Z" fill="#C3ED41"/>
<path d="M67.4281 82.1896C60.5643 75.5206 60.4063 64.55 67.0753 57.6862L84.2832 39.9755L109.139 64.1262L91.9315 81.8368C85.2625 88.7006 74.292 88.8586 67.4281 82.1896V82.1896Z" fill="#C3ED41"/>
<path d="M126.029 21.8767C119.165 15.2077 108.195 15.3657 101.526 22.2295L84.3178 39.9401L109.174 64.0908L126.382 46.3802C133.051 39.5163 132.893 28.5458 126.029 21.8767V21.8767Z" fill="#C3ED41"/>
<path d="M126.029 21.8767C119.165 15.2077 108.195 15.3657 101.526 22.2295L84.3178 39.9401L109.174 64.0908L126.382 46.3802C133.051 39.5163 132.893 28.5458 126.029 21.8767V21.8767Z" fill="#3FCBEF"/>
<circle cx="37.5" cy="37.4189" r="20" fill="#18D1BF"/>
</svg>
